<?xml version="1.0" encoding="UTF-8"?>
<svg version="1.1" xmlns="http://www.w3.org/2000/svg" width="19" height="30">
<path d="M0 0 C1.85546875 1.328125 1.85546875 1.328125 3 3 C2.6875 6.1875 2.6875 6.1875 2 9 C0.35 9.33 -1.3 9.66 -3 10 C-3 8 -3 6 -3 4 C-4.98 4 -6.96 4 -9 4 C-9.66 5.65 -10.32 7.3 -11 9 C-10.09507813 9.58007812 -10.09507813 9.58007812 -9.171875 10.171875 C0.0715851 16.19503287 0.0715851 16.19503287 2 19 C2 22.69824116 1.45783554 24.43533617 -0.875 27.3125 C-5.040251 30.62019932 -8.92342933 30.24174146 -14 30 C-16 28 -16 28 -16.3125 24.5625 C-16 21 -16 21 -14.8125 19 C-13 18 -13 18 -10.3125 18.3125 C-9.1678125 18.6528125 -9.1678125 18.6528125 -8 19 C-8.7425 19.8971875 -8.7425 19.8971875 -9.5 20.8125 C-11.28276418 22.97029994 -11.28276418 22.97029994 -11 26 C-7.99615946 25.3045656 -7.99615946 25.3045656 -5 24 C-4.03122943 21.96756452 -4.03122943 21.96756452 -4 20 C-6.44809802 18.04152158 -8.96271426 16.41119608 -11.6875 14.875 C-15 13 -15 13 -16 12 C-16.69288203 4.95569935 -16.69288203 4.95569935 -14.1875 1.5 C-9.58794933 -0.66449443 -5.00416532 -0.85984884 0 0 Z " fill="#FFFFFF" transform="translate(16,0)"/>
</svg>
